<svg id="Layer_1" data-name="Layer 1" xmlns="http://www.w3.org/2000/svg" viewBox="0 0 364.35 364.35"><defs><style>.cls-1{fill:#fff;}</style></defs><g id="Movies"><g id="Movies-2"><path class="cls-1" d="M256,73.82A182.18,182.18,0,0,0,73.82,256c0,100.6,81.57,182.18,182.18,182.18S438.18,356.61,438.18,256,356.61,73.82,256,73.82Zm91.35,291H164.65a2.1,2.1,0,0,1-2.1-2.1V148.51a2.11,2.11,0,0,1,2.1-2.11h182.7a2.11,2.11,0,0,1,2.1,2.1h0V362.7A2.1,2.1,0,0,1,347.35,364.8Z" transform="translate(-73.82 -73.82)"/><path class="cls-1" d="M304.06,270H208a1,1,0,0,0-1,1h0v65.44a1,1,0,0,0,1,1h96.11a1,1,0,0,0,.95-1V270.92A1,1,0,0,0,304.06,270Z" transform="translate(-73.82 -73.82)"/><rect class="cls-1" x="102.96" y="137.15" width="16.28" height="18.91"/><rect class="cls-1" x="102.96" y="101.58" width="16.28" height="18.91"/><rect class="cls-1" x="102.96" y="243.86" width="16.28" height="18.9"/><rect class="cls-1" x="102.96" y="208.3" width="16.28" height="18.9"/><rect class="cls-1" x="102.96" y="172.72" width="16.28" height="18.91"/><path class="cls-1" d="M304.06,173.9H208a1,1,0,0,0-1,.95h0v65.43a1,1,0,0,0,1,1h96.11a1,1,0,0,0,.95-1h0V174.85a1,1,0,0,0-.95-.95Z" transform="translate(-73.82 -73.82)"/><rect class="cls-1" x="245.24" y="101.58" width="16.28" height="18.91"/><rect class="cls-1" x="245.24" y="243.86" width="16.28" height="18.9"/><rect class="cls-1" x="245.24" y="137.15" width="16.28" height="18.91"/><rect class="cls-1" x="245.24" y="208.3" width="16.28" height="18.9"/><rect class="cls-1" x="245.24" y="172.72" width="16.28" height="18.91"/></g></g></svg>